<svg viewBox="0 0 403 357" fill="none" xmlns="http://www.w3.org/2000/svg"><g clip-path="url(#a)"><path fill-rule="evenodd" clip-rule="evenodd" d="M134.007.485A5.465 5.465 0 0 1 136.258 0h123.677a5.47 5.47 0 0 1 2.252.485l83.306 37.627a5.502 5.502 0 0 1 2.372 2.053l47.484 74.162a5.572 5.572 0 0 1-.388 6.538l-192.627 234.13a5.479 5.479 0 0 1-8.473 0L1.233 120.865a5.573 5.573 0 0 1-.387-6.538l47.482-74.162a5.514 5.514 0 0 1 2.373-2.053L134.007.485Z" fill="#919191"/><path fill-rule="evenodd" clip-rule="evenodd" d="M134.007.485A5.465 5.465 0 0 1 136.258 0h123.677a5.47 5.47 0 0 1 2.252.485l83.306 37.627a5.502 5.502 0 0 1 2.372 2.053l47.484 74.162a5.572 5.572 0 0 1-.388 6.538l-192.627 234.13a5.479 5.479 0 0 1-8.473 0L1.233 120.865a5.573 5.573 0 0 1-.387-6.538l47.482-74.162a5.514 5.514 0 0 1 2.373-2.053L134.007.485Z" fill="#919191"/><path d="M0 117.329c0-1.041.29-2.084.878-3.002L22.46 80.613h351.275l21.583 33.714c.583.912.873 1.947.877 2.98v.043a5.562 5.562 0 0 1-1.265 3.515l-192.597 234.13a5.477 5.477 0 0 1-8.471 0L1.265 120.865A5.56 5.56 0 0 1 0 117.329Z" fill="#47A9F1"/><path d="m337.442 51.332 11.066-10.17c-.787-1.36-1.723-2.579-3.038-3.05L262.177.485A5.465 5.465 0 0 0 259.926 0H136.269c-.777 0-1.544.165-2.251.485L54.573 36.362l13.335 14.455 131.119 22.007 138.415-21.492Z" fill="#7EC7FF"/><path d="m271.677 172.742-72.659-99.93-74.499 99.93h147.158Z" fill="#75C1FF"/><path d="m224.381 328.193-22.047 26.802a5.478 5.478 0 0 1-8.472 0l-22.048-26.802-47.295-155.451h147.158l-47.296 155.451Z" fill="#8DCCFC"/><path d="m67.914 50.816 131.101 21.999-74.399 100.05L67.914 50.816Z" fill="#BFE2F7"/><path d="m67.916 50.822 56.602 121.92L.875 114.336l67.041-63.514Z" fill="#87CBFF"/><path d="m.873 114.284 47.455-74.119a5.514 5.514 0 0 1 2.373-2.053l3.883-1.754.001.01L67.92 50.813.873 114.334v-.05Z" fill="#47A9F1"/><path d="m337.421 51.295-138.406 21.52 72.663 99.931 65.743-121.45Z" fill="#4BAEF7"/><path d="m379.341 89.37 15.977 24.957c.131.204.247.415.349.631l-123.99 57.784 65.739-121.465 41.925 38.092Z" fill="#6EBEFF"/><path d="m348.49 41.178 30.809 48.139-41.879-38.048 11.07-10.09Z" fill="#389BE3"/></g><defs><clipPath id="a"><path fill="#fff" d="M0 0h403v357H0z"/></clipPath></defs></svg>