<svg viewBox="0 0 101 129" fill="none" xmlns="http://www.w3.org/2000/svg">
<path d="M70.6863 41.3654L88.03 67.7193L51.3538 125.43L14.6778 67.7428L32.008 41.3709C33.1609 39.6166 31.7752 37.3406 29.721 37.4909C26.394 37.7343 22.6588 37.8811 19.4005 37.7065C15.3233 37.4879 12.5943 36.9345 10.5892 36.1364C8.61951 35.3525 7.2745 34.3034 6.00212 32.9566C3.52139 30.3309 1.53292 25.1952 1.51951 20.7248C1.50553 16.0685 2.26716 11.8729 2.89971 9.67904C3.52169 7.52183 5.10556 3.26762 10.8355 1.85145C11.2836 1.74069 11.9472 1.73302 12.8226 1.87287C13.6792 2.00973 14.6393 2.27114 15.63 2.60972C17.6121 3.28707 19.59 4.22906 20.8876 4.91991C21.413 5.19964 22.5961 6.05366 24.2007 7.35047C25.7641 8.61403 27.6292 10.2167 29.4764 11.9092C31.3254 13.6032 33.1404 15.3725 34.6106 16.9703C36.1181 18.6086 37.1445 19.9417 37.5472 20.7852C38.8303 23.4722 38.3201 26.2055 37.8815 27.794C37.4572 29.331 38.5609 30.8375 40.1914 30.8375H51.8077H63.4377C65.0285 30.8375 66.1401 29.3989 65.8423 27.8946C65.5138 26.2351 65.1391 23.3234 66.1166 20.6547C66.4051 19.8668 67.1882 18.6184 68.4016 17.0662C69.5851 15.5523 71.0852 13.8651 72.6855 12.2227C75.9365 8.88607 79.4061 5.93462 81.3591 4.92964C83.5733 3.79022 85.396 2.86265 86.9918 2.29484C88.5868 1.7273 89.7439 1.60025 90.67 1.84534C95.9444 3.24134 97.4333 7.45361 98.0256 9.65345C98.6182 11.8546 99.3307 16.059 99.3177 20.7251C99.3051 25.2235 97.4379 30.3721 95.1244 32.9944C93.9376 34.3396 92.6922 35.3768 90.8775 36.1502C89.0289 36.9382 86.503 37.489 82.7087 37.7068C79.6433 37.8828 76.1198 37.7312 72.9904 37.4831C70.9326 37.3199 69.525 39.6008 70.6863 41.3654Z" stroke="white" stroke-width="3"/>
<path d="M68.7313 67.874L51.4662 91.2369L34.1326 67.874H44.4779L51.4662 57.4602L57.4268 67.874H68.7313Z" fill="white"/>
</svg>
