<svg viewBox="0 0 300 229" fill="none" xmlns="http://www.w3.org/2000/svg">
<path d="M179.469 77.6494C179.469 93.6657 166.486 106.649 150.469 106.649C134.453 106.649 121.469 93.6657 121.469 77.6494C121.469 61.6332 134.453 48.6494 150.469 48.6494C166.486 48.6494 179.469 61.6332 179.469 77.6494Z" fill="white"/>
<path fill-rule="evenodd" clip-rule="evenodd" d="M75.0424 0.198242H225.253L301.099 77.0105L150.134 228.46L-1.12372 77.0163L75.0424 0.198242ZM197.319 44.3046C204.025 53.7093 207.969 65.2187 207.969 77.6494C207.969 102.951 191.627 124.436 168.922 132.125L223.553 150.569C242.963 131.095 261.457 112.539 275.147 98.8024L296.22 77.656L197.319 44.3046ZM202.969 77.6494C202.969 103.273 184.613 124.609 160.332 129.224L111.381 112.698C103.042 103.404 97.9695 91.119 97.9695 77.6494C97.9695 51.412 117.216 29.6699 142.361 25.7717L188.322 41.2707C197.393 50.7068 202.969 63.5269 202.969 77.6494ZM177.301 138.12L150.148 221.448L117.097 117.794L177.301 138.12ZM146.826 220.903L6.57669 80.4809L113.718 116.652L146.826 220.903ZM3.75108 76.3606L102.789 109.797C96.5894 100.62 92.9695 89.5575 92.9695 77.6494C92.9695 51.8504 109.96 30.0199 133.362 22.7371L76.0742 3.41841L3.75108 76.3606ZM222.492 3.19824H84.8098L207.59 44.602L222.492 3.19824ZM293.482 73.5667L210.433 45.5609L225.231 4.44603L293.482 73.5667ZM153.504 220.832L180.144 139.079L221.192 152.938C197.402 176.805 172.479 201.806 153.504 220.832Z" fill="white"/>
<path fill-rule="evenodd" clip-rule="evenodd" d="M179.469 77.6494C179.469 93.6657 166.486 106.649 150.469 106.649C134.453 106.649 121.469 93.6657 121.469 77.6494C121.469 61.6332 134.453 48.6494 150.469 48.6494C166.486 48.6494 179.469 61.6332 179.469 77.6494Z" fill="white"/>
</svg>
