<svg viewBox="0 0 300 301" fill="none" xmlns="http://www.w3.org/2000/svg">
<path d="M150.133 280.836C169.979 260.939 197.761 233.069 223.957 206.788L179.187 191.673L150.133 280.836Z" fill="#B8AFEF"/>
<path d="M150.133 280.836C169.979 260.939 197.761 233.069 223.957 206.788L179.187 191.673L150.133 280.836Z" fill="#B8AFEF"/>
<path d="M150.133 280.836C169.979 260.939 197.761 233.069 223.957 206.788L179.187 191.673L150.133 280.836Z" fill="#B8AFEF"/>
<path d="M150.133 280.836C169.979 260.939 197.761 233.069 223.957 206.788L179.187 191.673L150.133 280.836Z" fill="#B8AFEF"/>
<path d="M75.662 56.2007L0.98704 131.515L114.761 169.926L179.182 191.676L223.952 206.791C263.252 167.362 298.98 131.508 298.98 131.508L208.498 100.996L75.662 56.2007Z" fill="#1A335D"/>
<path fill-rule="evenodd" clip-rule="evenodd" d="M150.47 189.649C182.226 189.649 207.97 163.906 207.97 132.149C207.97 100.393 182.226 74.6494 150.47 74.6494C118.713 74.6494 92.9697 100.393 92.9697 132.149C92.9697 163.906 118.713 189.649 150.47 189.649ZM150.47 184.649C179.465 184.649 202.97 161.144 202.97 132.149C202.97 103.154 179.465 79.6494 150.47 79.6494C121.475 79.6494 97.9697 103.154 97.9697 132.149C97.9697 161.144 121.475 184.649 150.47 184.649Z" fill="#8861DB"/>
<path d="M298.986 131.505L224.626 56.1981L208.503 100.993L298.986 131.505Z" fill="#B8AFEF"/>
<path d="M298.986 131.505L224.626 56.1981L208.503 100.993L298.986 131.505Z" fill="#B8AFEF"/>
<path d="M298.986 131.505L224.626 56.1981L208.503 100.993L298.986 131.505Z" fill="#B8AFEF"/>
<path d="M298.986 131.505L224.626 56.1981L208.503 100.993L298.986 131.505Z" fill="#B8AFEF"/>
<path d="M298.986 131.505L224.626 56.1981L208.503 100.993L298.986 131.505Z" fill="#B8AFEF"/>
<path d="M298.986 131.505L224.626 56.1981L208.503 100.993L298.986 131.505Z" fill="#B8AFEF"/>
<path d="M298.986 131.505L224.626 56.1981L208.503 100.993L298.986 131.505Z" fill="#B8AFEF"/>
<path d="M298.986 131.505L224.626 56.1981L208.503 100.993L298.986 131.505Z" fill="#B8AFEF"/>
<path d="M224.626 56.1981H75.6675L208.503 100.993L224.626 56.1981Z" fill="#A085E4"/>
<path d="M224.626 56.1981H75.6675L208.503 100.993L224.626 56.1981Z" fill="#A085E4"/>
<path d="M224.626 56.1981H75.6675L208.503 100.993L224.626 56.1981Z" fill="#A085E4"/>
<path d="M224.626 56.1981H75.6675L208.503 100.993L224.626 56.1981Z" fill="#A085E4"/>
<path d="M150.133 280.836L179.187 191.673L114.767 169.924L150.133 280.836Z" fill="#A085E4"/>
<path d="M150.133 280.836L179.187 191.673L114.767 169.924L150.133 280.836Z" fill="#A085E4"/>
<path d="M150.133 280.836L179.187 191.673L114.767 169.924L150.133 280.836Z" fill="#A085E4"/>
<path d="M150.133 280.836L179.187 191.673L114.767 169.924L150.133 280.836Z" fill="#A085E4"/>
<path d="M0.992432 131.512L150.133 280.836L114.766 169.924L0.992432 131.512Z" fill="#8861DB"/>
<path d="M0.992432 131.512L150.133 280.836L114.766 169.924L0.992432 131.512Z" fill="#8861DB"/>
<path d="M0.992432 131.512L150.133 280.836L114.766 169.924L0.992432 131.512Z" fill="#8861DB"/>
<path d="M0.992432 131.512L150.133 280.836L114.766 169.924L0.992432 131.512Z" fill="#8861DB"/>
<circle cx="150.47" cy="132.149" r="29" fill="#8861DB"/>
</svg>
